<svg width="30" height="30" viewBox="0 0 30 30" fill="none" xmlns="http://www.w3.org/2000/svg">
<mask id="mask0_517_420" style="mask-type:alpha" maskUnits="userSpaceOnUse" x="0" y="0" width="30" height="30">
<rect width="30" height="30" fill="#D9D9D9"/>
</mask>
<g mask="url(#mask0_517_420)">
<path d="M15 17.5551L6.05703 26.4981C5.72243 26.8327 5.29658 27 4.77947 27C4.26236 27 3.8365 26.8327 3.5019 26.4981C3.1673 26.1635 3 25.7376 3 25.2205C3 24.7034 3.1673 24.2776 3.5019 23.943L12.4449 15L3.5019 6.05703C3.1673 5.72243 3 5.29658 3 4.77947C3 4.26236 3.1673 3.8365 3.5019 3.5019C3.8365 3.1673 4.26236 3 4.77947 3C5.29658 3 5.72243 3.1673 6.05703 3.5019L15 12.4449L23.943 3.5019C24.2776 3.1673 24.7034 3 25.2205 3C25.7376 3 26.1635 3.1673 26.4981 3.5019C26.8327 3.8365 27 4.26236 27 4.77947C27 5.29658 26.8327 5.72243 26.4981 6.05703L17.5551 15L26.4981 23.943C26.8327 24.2776 27 24.7034 27 25.2205C27 25.7376 26.8327 26.1635 26.4981 26.4981C26.1635 26.8327 25.7376 27 25.2205 27C24.7034 27 24.2776 26.8327 23.943 26.4981L15 17.5551Z" fill="white"/>
</g>
</svg>
